# File created by Blade
# Date/Time:  Fri Jan 16 17:45:47 2015
#---------------------------------------------------------
:version 1.10
:name HOM
:units
  mass 1.0
  length 1.000000
  angle deg
:documentation
     Acclaim Skeleton File
:root
   axis xyz
   order TX TY TZ RX RY RZ
   position 0.000000 0.000000 0.000000
   orientation 0 0 0
:bonedata
   begin
      id 1
      name Spine_dum
      direction 0.000000 1.000000 0.000000
      length 7.170412
      axis 0.0 0.0 0.0 xyz
   end
   begin
      id 2
      name LeftUpLeg_dum
      direction 1.000000 0.000000 0.000000
      length 4.318350
      axis 0.0 0.0 0.0 xyz
   end
   begin
      id 3
      name RightUpLeg_dum
      direction -1.000000 0.000000 0.000000
      length 4.318350
      axis 0.0 0.0 0.0 xyz
   end
   begin
      id 4
      name Spine
      direction 0.000000 1.000000 0.000000
      length 0.000000
      axis 0.0 0.0 0.0 xyz
      dof rx ry rz
   end
   begin
      id 5
      name Spine_dum1
      direction 0.000000 1.000000 0.000000
      length 14.276153
      axis 0.0 0.0 0.0 xyz
   end
   begin
      id 6
      name Spine_dum2
      direction 0.000000 1.000000 0.000000
      length 10.718243
      axis 0.0 0.0 0.0 xyz
   end
   begin
      id 7
      name Spine_dum3
      direction 0.000000 1.000000 0.000000
      length 10.718243
      axis 0.0 0.0 0.0 xyz
   end
   begin
      id 8
      name Head
      direction 0.000000 1.000000 0.000000
      length 4.527550
      axis 0.0 0.0 0.0 xyz
      dof rx ry rz
   end
   begin
      id 9
      name LeftShoulder
      direction 1.000000 0.000000 0.000000
      length 7.058872
      axis 0.0 0.0 -90.0 xyz
      dof rx ry rz
   end
   begin
      id 10
      name LeftArm
      direction 1.000000 0.000000 0.000000
      length 10.955525
      axis 0.0 0.0 -90.0 xyz
      dof rx ry rz
   end
   begin
      id 11
      name LeftForeArm
      direction 1.000000 0.000000 0.000000
      length 8.193716
      axis 0.0 0.0 -90.0 xyz
      dof ry rz rx
   end
   begin
      id 12
      name LeftHand
      direction 0.000000 0.000000 0.000000
      length 0.000000
      axis 0.0 0.0 -90.0 xyz
      dof rx ry rz
   end
   begin
      id 13
      name LeftHand_dum1
      direction 0.000000 0.000000 0.000000
      length 0.000000
      axis 0.0 0.0 -90.0 xyz
   end
   begin
      id 14
      name LeftHand_dum2
      direction 1.000000 0.000000 0.000000
      length 3.937000
      axis 0.0 0.0 -90.0 xyz
   end
   begin
      id 15
      name LeftHandThumb1
      direction 0.000000 0.000000 1.000000
      length 3.937000
      axis 0.0 0.0 -90.0 xyz
      dof rx rz ry
   end
   begin
      id 16
      name RightShoulder
      direction -1.000000 0.000000 0.000000
      length 7.058872
      axis 0.0 0.0 90.0 xyz
      dof rx ry rz
   end
   begin
      id 17
      name RightArm
      direction -1.000000 0.000000 0.000000
      length 10.955525
      axis 0.0 0.0 90.0 xyz
      dof rx ry rz
   end
   begin
      id 18
      name RightForeArm
      direction -1.000000 0.000000 0.000000
      length 8.193716
      axis 0.0 0.0 90.0 xyz
      dof ry rz rx
   end
   begin
      id 19
      name RightHand
      direction 0.000000 0.000000 0.000000
      length 0.000000
      axis 0.0 0.0 90.0 xyz
      dof rx ry rz
   end
   begin
      id 20
      name RightHand_dum1
      direction 0.000000 0.000000 0.000000
      length 0.000000
      axis 0.0 0.0 90.0 xyz
   end
   begin
      id 21
      name RightHand_dum2
      direction -1.000000 0.000000 0.000000
      length 3.937000
      axis 0.0 0.0 90.0 xyz
   end
   begin
      id 22
      name RightHandThumb1
      direction 0.000000 0.000000 1.000000
      length 3.937000
      axis 0.0 0.0 90.0 xyz
      dof rx rz ry
   end
   begin
      id 23
      name LeftUpLeg
      direction 0.000000 -1.000000 0.000000
      length 17.323638
      axis 0.0 0.0 0.0 xyz
      dof rx ry rz
   end
   begin
      id 24
      name LeftLeg
      direction 0.000000 -1.000000 0.000000
      length 16.270368
      axis 0.0 0.0 0.0 xyz
      dof rx ry rz
   end
   begin
      id 25
      name LeftFoot
      direction 0.000000 -0.258819 0.965926
      length 4.922846
      axis 15.0 0.0 0.0 xyz
      dof rx ry rz
   end
   begin
      id 26
      name LeftToeBase
      direction 0.000000 0.000000 1.000000
      length 2.952750
      axis 0.0 0.0 0.0 xyz
      dof rx ry rz
   end
   begin
      id 27
      name RightUpLeg
      direction 0.000000 -1.000000 0.000000
      length 17.323638
      axis 0.0 0.0 0.0 xyz
      dof rx ry rz
   end
   begin
      id 28
      name RightLeg
      direction 0.000000 -1.000000 0.000000
      length 16.270368
      axis 0.0 0.0 0.0 xyz
      dof rx ry rz
   end
   begin
      id 29
      name RightFoot
      direction 0.000000 -0.258819 0.965926
      length 4.922846
      axis 15.0 0.0 0.0 xyz
      dof rx ry rz
   end
   begin
      id 30
      name RightToeBase
      direction 0.000000 0.000000 1.000000
      length 2.952750
      axis 0.0 0.0 0.0 xyz
      dof rx ry rz
   end
:hierarchy
   begin
      root Spine_dum LeftUpLeg_dum RightUpLeg_dum
      Spine_dum Spine
      LeftUpLeg_dum LeftUpLeg
      RightUpLeg_dum RightUpLeg
      Spine Spine_dum1 Spine_dum2 Spine_dum3
      Spine_dum1 Head
      Spine_dum2 LeftShoulder
      Spine_dum3 RightShoulder
      LeftShoulder LeftArm
      LeftArm LeftForeArm
      LeftForeArm LeftHand
      LeftHand LeftHand_dum1 LeftHand_dum2
      LeftHand_dum1 LeftHandThumb1
      RightShoulder RightArm
      RightArm RightForeArm
      RightForeArm RightHand
      RightHand RightHand_dum1 RightHand_dum2
      RightHand_dum1 RightHandThumb1
      LeftUpLeg LeftLeg
      LeftLeg LeftFoot
      LeftFoot LeftToeBase
      RightUpLeg RightLeg
      RightLeg RightFoot
      RightFoot RightToeBase
   end

# File created by Blade
# Date/Time:  Fri Jan 16 17:45:28 2015
# Frame Rate: 120.000 fps
#------------------------------------------------------
:FULLY-SPECIFIED
:DEGREES
1528
root -5.323658 35.290980 -10.541475 -3.940452 -7.363957 -5.568012
Spine 1.872957 0.612746 12.015067
Head 4.211629 4.909218 -11.591230
LeftShoulder -19.661575 14.281984 -18.942933
LeftArm 21.058006 2.549672 -72.663324
LeftForeArm 3.865699 0.000000 12.181958
LeftHand 1.974260 -0.000000 -6.239351
LeftHandThumb1 -26.253704 0.000000 33.147579
RightShoulder 3.282114 0.361388 2.664728
RightArm -3.001244 15.536578 70.077738
RightForeArm -18.720500 0.000000 78.430431
RightHand 3.720505 -0.000000 -5.859858
RightHandThumb1 -24.326973 -0.000000 -32.862282
LeftUpLeg 13.077315 16.222525 7.437129
LeftLeg -8.237783 -0.000000 0.000000
LeftFoot -15.287620 27.232556 -8.668061
LeftToeBase 22.692034 -0.000000 -0.000000
RightUpLeg 9.262943 -3.405176 3.656720
RightLeg -4.361754 -0.000000 0.000000
RightFoot -3.233610 -26.710827 3.051578
RightToeBase 13.769136 -0.000000 -0.000000
1529
root -5.323727 35.290758 -10.543422 -3.911148 -7.407087 -5.564465
Spine 1.838924 0.684404 12.009674
Head 4.207005 4.891128 -11.593055
LeftShoulder -19.659299 14.277510 -18.929071
LeftArm 21.050189 2.591756 -72.662101
LeftForeArm 3.766553 -0.000000 12.218023
LeftHand 1.917279 -0.000000 -6.261116
LeftHandThumb1 -26.253704 0.000000 33.147579
RightShoulder 3.286832 0.399553 2.665454
RightArm -3.160142 16.111758 70.169366
RightForeArm -18.134171 -0.000000 79.874277
RightHand 4.079333 0.000000 -6.574448
RightHandThumb1 -24.326973 -0.000000 -32.862282
LeftUpLeg 13.054694 16.258173 7.428959
LeftLeg -8.238266 -0.000000 0.000000
LeftFoot -15.286405 27.239545 -8.663520
LeftToeBase 22.686218 -0.000000 -0.000000
RightUpLeg 9.212892 -3.371673 3.656127
RightLeg -4.330523 -0.000000 0.000000
RightFoot -3.240794 -26.703404 3.010915
RightToeBase 13.797542 -0.000000 -0.000000
1530
root -5.324047 35.290614 -10.544365 -3.894250 -7.404080 -5.566754
Spine 1.811952 0.716823 12.006667
Head 4.192220 4.885394 -11.583379
LeftShoulder -19.652902 14.276904 -18.923231
LeftArm 21.056734 2.642545 -72.663800
LeftForeArm 3.818446 -0.000000 12.222780
LeftHand 1.930218 -0.000000 -6.190114
LeftHandThumb1 -26.253704 0.000000 33.147579
RightShoulder 3.286812 0.437484 2.686643
RightArm -3.306755 16.566614 70.180347
RightForeArm -17.375256 0.000000 81.211436
RightHand 4.696813 -0.000000 -7.747373
RightHandThumb1 -24.326973 -0.000000 -32.862282
LeftUpLeg 13.029232 16.212298 7.419469
LeftLeg -8.226348 -0.000000 0.000000
LeftFoot -15.308190 27.278389 -8.679325
LeftToeBase 22.738360 -0.000000 -0.000000
RightUpLeg 9.190660 -3.363302 3.662921
RightLeg -4.321614 -0.000000 0.000000
RightFoot -3.247033 -26.722693 3.022288
RightToeBase 13.790064 -0.000000 -0.000000
1531
root -5.321549 35.290631 -10.548531 -3.841916 -7.390924 -5.560467
Spine 1.743335 0.746158 11.997006
Head 4.185139 4.875959 -11.572617
LeftShoulder -19.642994 14.274746 -18.918194
LeftArm 21.046822 2.685352 -72.669269
LeftForeArm 3.811607 -0.000000 12.244752
LeftHand 1.958394 0.000000 -6.162644
LeftHandThumb1 -26.253704 0.000000 33.147579
RightShoulder 3.274850 0.456908 2.703703
RightArm -3.434127 17.069774 70.226128
RightForeArm -16.626248 -0.000000 82.492511
RightHand 5.313510 -0.000000 -8.659971
RightHandThumb1 -24.326973 -0.000000 -32.862282
LeftUpLeg 12.956844 16.290386 7.403939
LeftLeg -8.212965 -0.000000 0.000000
LeftFoot -15.301482 27.209131 -8.653982
LeftToeBase 22.760061 -0.000000 -0.000000
RightUpLeg 9.120247 -3.379946 3.654454
RightLeg -4.299288 -0.000000 0.000000
RightFoot -3.263956 -26.716758 3.035608
RightToeBase 13.805671 -0.000000 -0.000000
1532
root -5.322185 35.290466 -10.546130 -3.843137 -7.408102 -5.556661
Spine 1.734588 0.797834 11.987783
Head 4.172670 4.848436 -11.567881
LeftShoulder -19.642922 14.272940 -18.908502
LeftArm 21.055795 2.719584 -72.678961
LeftForeArm 3.795242 0.000000 12.244051
LeftHand 1.965118 -0.000000 -6.178754
LeftHandThumb1 -26.253704 0.000000 33.147579
RightShoulder 3.265240 0.442174 2.718390
RightArm -3.515084 17.560965 70.283435
RightForeArm -15.998089 -0.000000 83.695397
RightHand 6.078322 0.000000 -9.621393
RightHandThumb1 -24.326973 -0.000000 -32.862282
LeftUpLeg 12.964531 16.186967 7.384933
LeftLeg -8.209469 -0.000000 0.000000
LeftFoot -15.329996 27.305592 -8.700840
LeftToeBase 22.725840 -0.000000 -0.000000
RightUpLeg 9.123353 -3.350123 3.652542
RightLeg -4.295803 -0.000000 0.000000
RightFoot -3.279896 -26.714262 3.049927
RightToeBase 13.823272 -0.000000 -0.000000
1533
root -5.322256 35.290700 -10.546030 -3.837107 -7.415165 -5.557000
Spine 1.723114 0.837824 11.985220
Head 4.152316 4.855145 -11.567765
LeftShoulder -19.632649 14.263588 -18.901566
LeftArm 21.056104 2.775599 -72.677184
LeftForeArm 3.744356 -0.000000 12.254401
LeftHand 1.946817 -0.000000 -6.194658
LeftHandThumb1 -26.253704 0.000000 33.147579
RightShoulder 3.274060 0.469411 2.728815
RightArm -3.674640 18.094797 70.319213
RightForeArm -15.042632 -0.000000 84.897361
RightHand 6.618881 -0.000000 -10.297097
RightHandThumb1 -24.326973 -0.000000 -32.862282
LeftUpLeg 12.960890 16.163488 7.379861
LeftLeg -8.212449 -0.000000 0.000000
LeftFoot -15.338362 27.327946 -8.720201
LeftToeBase 22.708774 -0.000000 -0.000000
RightUpLeg 9.105145 -3.359966 3.650775
RightLeg -4.269012 -0.000000 0.000000
RightFoot -3.293659 -26.695754 3.041796
RightToeBase 13.804037 -0.000000 -0.000000
1534
root -5.323464 35.290927 -10.548248 -3.834397 -7.411747 -5.562965
Spine 1.726159 0.871821 11.981737
Head 4.123920 4.845701 -11.549881
LeftShoulder -19.605146 14.254493 -18.894432
LeftArm 21.055364 2.829108 -72.671179
LeftForeArm 3.731829 0.000000 12.273568
LeftHand 1.966415 0.000000 -6.178692
LeftHandThumb1 -26.253704 0.000000 33.147579
RightShoulder 3.261502 0.476376 2.762319
RightArm -3.771527 18.606831 70.340506
RightForeArm -14.148567 0.000000 86.085151
RightHand 7.043694 0.000000 -10.656076
RightHandThumb1 -24.326973 -0.000000 -32.862282
LeftUpLeg 12.945633 16.165956 7.387366
LeftLeg -8.192777 -0.000000 0.000000
LeftFoot -15.330649 27.326376 -8.696577
LeftToeBase 22.693673 -0.000000 -0.000000
RightUpLeg 9.093417 -3.357690 3.661221
RightLeg -4.258152 -0.000000 0.000000
RightFoot -3.285446 -26.712130 3.028056
RightToeBase 13.823451 -0.000000 -0.000000
1535
root -5.324054 35.290088 -10.552256 -3.771063 -7.414145 -5.559610
Spine 1.645364 0.915828 11.960474
Head 4.118184 4.839833 -11.530115
LeftShoulder -19.618030 14.263591 -18.884462
LeftArm 21.070449 2.918675 -72.654413
LeftForeArm 3.671240 -0.000000 12.283231
LeftHand 1.978119 0.000000 -6.220234
LeftHandThumb1 -26.253704 0.000000 33.147579
RightShoulder 3.247748 0.450959 2.799820
RightArm -3.865108 19.034131 70.342768
RightForeArm -13.319531 -0.000000 87.198705
RightHand 7.508997 -0.000000 -11.263406
RightHandThumb1 -24.326973 -0.000000 -32.862282
LeftUpLeg 12.865059 16.133990 7.357962
LeftLeg -8.177495 -0.000000 0.000000
LeftFoot -15.344364 27.365245 -8.684775
LeftToeBase 22.740820 -0.000000 -0.000000
RightUpLeg 9.007240 -3.333299 3.668406
RightLeg -4.225655 -0.000000 0.000000
RightFoot -3.311392 -26.746675 3.025072
RightToeBase 13.829784 -0.000000 -0.000000
1536
root -5.324344 35.289958 -10.553239 -3.752220 -7.416837 -5.559323
Spine 1.622979 0.966549 11.954716
Head 4.093021 4.843797 -11.527454
LeftShoulder -19.596901 14.243687 -18.871644
LeftArm 21.048591 2.956254 -72.661007
LeftForeArm 3.701592 -0.000000 12.305568
LeftHand 2.002668 -0.000000 -6.273701
LeftHandThumb1 -26.253704 0.000000 33.147579
RightShoulder 3.213378 0.430518 2.829780
RightArm -3.945119 19.501565 70.395428
RightForeArm -12.616778 -0.000000 88.316965
RightHand 7.782067 -0.000000 -11.746590
RightHandThumb1 -24.326973 -0.000000 -32.862282
LeftUpLeg 12.840298 16.128043 7.350839
LeftLeg -8.171457 -0.000000 0.000000
LeftFoot -15.351735 27.388604 -8.689762
LeftToeBase 22.717959 -0.000000 -0.000000
RightUpLeg 8.974135 -3.335978 3.669787
RightLeg -4.199669 -0.000000 0.000000
RightFoot -3.335500 -26.738954 3.033751
RightToeBase 13.846273 -0.000000 -0.000000
1537
root -5.324926 35.289720 -10.554650 -3.731642 -7.408472 -5.558841
Spine 1.596626 0.998968 11.939492
Head 4.073595 4.835417 -11.514202
LeftShoulder -19.588701 14.241896 -18.857312
LeftArm 21.056427 3.033020 -72.657148
LeftForeArm 3.681581 0.000000 12.306210
LeftHand 1.989940 -0.000000 -6.276401
LeftHandThumb1 -26.253704 0.000000 33.147579
RightShoulder 3.188302 0.417247 2.869661
RightArm -4.047072 19.859243 70.374984
RightForeArm -11.912035 0.000000 89.402435
RightHand 7.954710 -0.000000 -12.263442
RightHandThumb1 -24.326973 -0.000000 -32.862282
LeftUpLeg 12.809740 16.077618 7.336499
LeftLeg -8.160758 -0.000000 0.000000
LeftFoot -15.349762 27.419365 -8.677864
LeftToeBase 22.677821 -0.000000 -0.000000
RightUpLeg 8.943469 -3.331466 3.672232
RightLeg -4.182412 -0.000000 0.000000
RightFoot -3.338753 -26.757918 3.009178
RightToeBase 13.833404 -0.000000 -0.000000
1538
root -5.325779 35.289312 -10.554470 -3.722371 -7.395557 -5.557933
Spine 1.580303 1.029054 11.923998
Head 4.054814 4.845328 -11.495037
LeftShoulder -19.580446 14.229546 -18.839822
LeftArm 21.049315 3.091372 -72.663347
LeftForeArm 3.692929 -0.000000 12.317770
LeftHand 1.965630 -0.000000 -6.270350
LeftHandThumb1 -26.253704 0.000000 33.147579
RightShoulder 3.148194 0.390377 2.904003
RightArm -4.119760 20.150590 70.354438
RightForeArm -11.265500 -0.000000 90.418518
RightHand 8.144416 0.000000 -12.796215
RightHandThumb1 -24.326973 -0.000000 -32.862282
LeftUpLeg 12.795383 16.024974 7.324737
LeftLeg -8.160525 -0.000000 0.000000
LeftFoot -15.365406 27.463863 -8.686584
LeftToeBase 22.702070 -0.000000 -0.000000
RightUpLeg 8.935350 -3.324912 3.674050
RightLeg -4.180902 -0.000000 0.000000
RightFoot -3.348705 -26.760768 3.011133
RightToeBase 13.842072 -0.000000 -0.000000
1539
root -5.326244 35.289039 -10.555525 -3.703681 -7.388914 -5.557833
Spine 1.558601 1.071689 11.912668
Head 4.035300 4.843481 -11.489459
LeftShoulder -19.570859 14.228754 -18.825610
LeftArm 21.053908 3.123123 -72.679605
LeftForeArm 3.700693 0.000000 12.324521
LeftHand 1.927528 -0.000000 -6.299997
LeftHandThumb1 -26.253704 0.000000 33.147579
RightShoulder 3.098091 0.342545 2.936303
RightArm -4.168404 20.403698 70.334221
RightForeArm -10.665335 0.000000 91.374001
RightHand 8.311040 -0.000000 -13.334424
RightHandThumb1 -24.326973 -0.000000 -32.862282
LeftUpLeg 12.770632 15.986856 7.314547
LeftLeg -8.158734 -0.000000 0.000000
LeftFoot -15.380627 27.499311 -8.693053
LeftToeBase 22.778771 -0.000000 -0.000000
RightUpLeg 8.905072 -3.328960 3.676030
RightLeg -4.159847 -0.000000 0.000000
RightFoot -3.351463 -26.772641 2.992639
RightToeBase 13.877936 -0.000000 -0.000000
